<?xml version="1.0" encoding="UTF-8" standalone="no"?>
<!DOCTYPE svg PUBLIC "-//W3C//DTD SVG 1.1//EN" "http://www.w3.org/Graphics/SVG/1.1/DTD/svg11.dtd">
<svg width="100%" height="100%" viewBox="0 0 413 451" version="1.1" xmlns="http://www.w3.org/2000/svg" xmlns:xlink="http://www.w3.org/1999/xlink" xml:space="preserve" xmlns:serif="http://www.serif.com/" style="fill-rule:evenodd;clip-rule:evenodd;stroke-linejoin:round;stroke-miterlimit:2;">
    <g transform="matrix(1,0,0,1,-301.472,-228.347)">
        <path d="M627.83,230.05C629.26,227.58 632.6,228.59 634.97,228.48C636.74,228.23 638.3,229.65 638.36,231.41C638.58,237.29 638.32,243.17 638.41,249.06C638.72,252.03 636.07,254.98 633.01,254.54C621.71,254.48 610.42,254.83 599.13,254.6C599.17,256.8 599.18,258.99 599.17,261.19C605.03,260.75 610.87,261.07 616.72,261.37C618.6,261.99 620.1,263.95 620.11,265.95C620.27,271.66 619.78,277.36 619.89,283.06C620.32,285.81 617.78,288.49 615.03,288.27C603.98,288.31 592.93,288.46 581.88,288.29C581.58,292.68 581.74,297.09 581.77,301.49C578.35,301.5 574.93,301.54 571.52,301.55C571.65,295.08 571.36,288.6 571.51,282.13C571.38,279.35 574.44,277.57 576.95,277.77C587.71,277.68 598.48,277.91 609.24,277.83C609.27,275.64 609.28,273.45 609.27,271.27C603.47,271.13 597.67,271.33 591.88,271.15C589.88,270.32 588.13,268.34 588.42,266.04C588.52,260.34 588.44,254.64 588.43,248.94C588.16,246.44 590.44,244.03 592.96,244.27C604.55,244.28 616.15,244.26 627.74,244.27C627.81,239.53 627.45,234.78 627.83,230.05Z" style="fill:#00ADB5;fill-rule:nonzero;"/>
        <path d="M694.8,228.84C697.93,228.72 701.73,227.46 704.44,229.51C705.98,235.85 704.83,242.59 704.92,249.09C705.36,251.89 702.9,254.73 700.06,254.55C688.55,254.7 677.04,254.54 665.53,254.49C665.54,256.71 665.55,258.93 665.56,261.15C671.05,261.21 676.54,261.16 682.04,261.18C684.58,260.94 686.66,263.54 686.42,265.97C686.28,271.65 686.32,277.32 686.35,283C686.74,285.92 683.89,288.52 681.05,288.33C670.14,288.22 659.23,288.42 648.32,288.27C648.34,292.67 648.18,297.07 648.32,301.47C644.89,301.74 641.44,301.5 638.01,301.59C637.7,295.05 637.95,288.5 638.16,281.97C638.15,279.54 640.63,277.77 642.96,278.17C654.05,278.36 665.13,277.7 676.22,277.8C676.25,275.6 676.19,273.4 676.05,271.21C670.68,271.23 665.32,271.21 659.97,271.26C657.04,271.58 654.5,268.84 654.77,265.97C654.86,260.29 654.74,254.6 654.92,248.93C654.94,246.36 657.35,243.92 660,244.29C671.47,244.32 682.95,244.09 694.43,244.26C694.73,239.12 694.13,233.95 694.8,228.84Z" style="fill:#00ADB5;fill-rule:nonzero;"/>
        <path d="M558.28,308.26C571.11,308.38 583.94,308.34 596.77,308.29C598.29,332.84 599.55,357.42 600.92,381.98C602.16,404.07 603.67,426.15 604.68,448.25C608.9,448.26 613.13,448.23 617.36,448.26C620.08,406.53 622.05,364.75 623.95,322.99C624.39,318.16 624.58,313.3 624.54,308.45C637.48,308.29 650.43,308.39 663.38,308.4C665.71,347.82 667.79,387.26 670.45,426.67C670.72,433.73 671.62,440.75 671.55,447.82C678.98,448.76 686.47,447.29 693.93,448.12C700.74,447.84 707.54,448.22 714.37,448.15C714.53,503.78 714.46,559.4 714.34,615.02C714.24,636.11 714.67,657.21 714.18,678.3C616.45,678.62 518.72,678.37 420.99,678.47C381.22,678.34 341.44,678.66 301.67,678.36C301.24,655.22 301.67,632.07 301.5,608.94C301.54,551.73 301.59,494.53 301.49,437.33C336.57,416.78 371.75,396.38 406.8,375.77C408.57,374.72 410.41,373.79 412.26,372.87C412.2,385.65 412.32,398.44 412.23,411.23C433.99,398.54 455.67,385.73 477.48,373.14C477.65,385.96 477.29,398.79 477.47,411.61C499.33,398.63 521.35,385.92 543.37,373.22C543.15,398.1 543.27,422.97 543.28,447.84C545.74,447.86 548.21,447.87 550.69,447.89C553.28,406.02 555.46,364.12 557.41,322.21C557.66,317.56 557.7,312.89 558.28,308.26M319.24,447.94C319.31,518.87 319.32,589.8 319.28,660.73C445.07,660.62 570.86,660.72 696.66,660.72C696.77,595.73 696.71,530.75 696.73,465.77C606.64,465.45 516.55,465.63 426.46,465.73C426.42,459.88 426.35,454.04 426.33,448.2C459.29,448.14 492.25,448.31 525.21,448.12C525.14,433.5 525.32,418.87 525.22,404.25C503.32,417.13 481.4,429.96 459.63,443.07C459.27,430.13 459.57,417.2 459.43,404.26C447.41,411.3 435.36,418.3 423.54,425.66C413.97,431.54 403.91,436.57 394.52,442.74C394.34,429.7 394.64,416.67 394.52,403.63C369.38,418.32 344.22,432.97 319.24,447.94Z" style="fill:#E2E8F0;fill-rule:nonzero;"/>
        <path d="M371.41,485.23C409.13,485.2 446.86,485.04 484.59,485.3C475.35,494.79 465.85,504.03 456.21,513.11C454.46,514.73 453.12,516.87 451.05,518.11C429.46,518.43 407.85,518.1 386.25,518.15C381.57,522.82 376.83,527.42 372.16,532.1C372.27,554.03 372.01,575.97 372.21,597.9C376.4,602.89 381.42,607.27 386.15,611.8C409.07,611.84 431.99,611.74 454.91,611.81C455.53,600.81 454.19,589.75 455.2,578.78C466.37,589.29 476.99,600.37 488.24,610.79C488.3,622.26 488.21,633.73 488.24,645.21C449.77,645.17 411.3,644.98 372.83,645.39C361.1,634.08 349.64,622.52 338.08,611.04C338.33,580.15 338,549.22 338.38,518.35C349.35,507.28 360.56,496.43 371.41,485.23Z" style="fill:#E2E8F0;fill-rule:nonzero;"/>
        <path d="M506.62,545.33C517.68,535.08 528.35,524.41 539.3,514.05C539.54,547.57 539.5,581.1 539.45,614.63C531.87,621.63 524.4,628.74 517.15,636.09C513.7,639.36 510.55,642.98 506.71,645.82C506.64,612.32 506.7,578.82 506.62,545.33Z" style="fill:#E2E8F0;fill-rule:nonzero;"/>
        <path d="M520.22,485.28C528.55,483.8 537.3,490.35 537.67,498.92C538.95,507.4 531.51,515.69 522.98,515.45C515.33,515.79 508.09,509.61 507.44,501.96C506.45,494.2 512.48,486.32 520.22,485.28M520.37,495.38C517.29,496.65 516.1,501.17 518.52,503.62C520.62,506.39 525.34,506.04 527.04,503.01C529.68,499.04 524.77,493.25 520.37,495.38Z" style="fill:#00ADB5;fill-rule:nonzero;"/>
        <path d="M557.52,485.34C588.01,485.02 618.5,485.4 648.99,485.29C659.97,485.33 670.96,485.16 681.94,485.5C671.18,496.64 660.09,507.46 649.17,518.44C629.69,518.62 610.21,518.47 590.74,518.59C590.92,528.28 590.51,537.99 591.06,547.66C618.57,547.57 646.09,547.69 673.6,547.79C663.11,559.1 651.45,569.28 641.04,580.68C624.25,580.53 607.45,580.33 590.66,580.55C591.06,591.59 590.79,602.64 590.87,613.69C579.38,624.07 569.33,635.94 557.66,646.14C557.17,615.75 557.63,585.34 557.57,554.95C557.67,531.75 557.22,508.54 557.52,485.34Z" style="fill:#00ADB5;fill-rule:nonzero;"/>
        <path d="M400.35,566.05C399.39,559.12 404.13,551.78 411.06,550.27C416.36,548.77 422.05,550.86 425.88,554.63C446.69,554.69 467.5,554.62 488.31,554.56C488.19,573.3 488.14,592.04 488.24,610.79C476.99,600.37 466.37,589.29 455.2,578.78C453.52,577.07 452.14,575.07 450.26,573.57C442.28,573.37 434.26,573.39 426.28,573.43C424.21,574.61 422.57,576.5 420.26,577.27C412.14,581 401.17,575.09 400.35,566.05M412.28,559.27C408.76,560.86 408.34,566.35 411.77,568.29C414.65,570.53 419.25,568.31 419.69,564.84C420.38,561.05 415.77,557.19 412.28,559.27Z" style="fill:#00ADB5;fill-rule:nonzero;"/>
    </g>
</svg>
