<?xml version="1.0" encoding="UTF-8" standalone="no"?>
<!DOCTYPE svg PUBLIC "-//W3C//DTD SVG 1.1//EN" "http://www.w3.org/Graphics/SVG/1.1/DTD/svg11.dtd">
<svg width="100%" height="100%" viewBox="0 0 500 500" version="1.1" xmlns="http://www.w3.org/2000/svg" xmlns:xlink="http://www.w3.org/1999/xlink" xml:space="preserve" xmlns:serif="http://www.serif.com/" style="fill-rule:evenodd;clip-rule:evenodd;stroke-linejoin:round;stroke-miterlimit:2;">
    <g id="_-287c4aff" serif:id="#287c4aff">
        <path d="M235.64,140.88C259.95,137.21 285.31,142.2 306.65,154.33C326.27,165.81 342.5,183.17 352.16,203.79C361.39,223.98 364.13,246.99 360.32,268.83C356.5,294.48 342.5,318.15 322.69,334.73C305.24,349.69 282.86,358.62 259.95,360.2C236.97,362.24 213.49,356.36 193.96,344.14C169.33,329.08 150.99,304.05 144.46,275.89C139.47,253.64 140.95,229.76 149.55,208.56C163.53,172.86 197.82,146.39 235.64,140.88M245.32,150.46C229.27,151.48 213.45,156.3 199.79,164.82C178.32,177.77 162.14,199.16 155.45,223.32C152.49,235.48 150.34,248.15 152.4,260.64C154.92,288.98 170.89,315.56 194.09,331.86C209.93,343.43 229.43,349.51 248.95,350.4C257.77,350.7 266.55,349.24 275.12,347.28C307.87,339.76 336.06,314.43 346.41,282.38C354.21,258.13 353.32,230.77 342.2,207.68C339.08,200.6 334.6,194.2 329.99,188.02C310.19,162.65 277.37,148.28 245.32,150.46Z" style="fill:white;fill-rule:nonzero;"/>
    </g>
    <g id="_-44a066ff" serif:id="#44a066ff">
        <path d="M245.32,150.46C277.37,148.28 310.19,162.65 329.99,188.02C334.6,194.2 339.08,200.6 342.2,207.68C353.32,230.77 354.21,258.13 346.41,282.38C336.06,314.43 307.87,339.76 275.12,347.28C266.55,349.24 257.77,350.7 248.95,350.4C229.43,349.51 209.93,343.43 194.09,331.86C170.89,315.56 154.92,288.98 152.4,260.64C150.34,248.15 152.49,235.48 155.45,223.32C162.14,199.16 178.32,177.77 199.79,164.82C213.45,156.3 229.27,151.48 245.32,150.46M312.08,218.73C307.69,219.64 303.17,219.38 298.8,220.35C298.66,228.91 297.98,237.44 297.67,245.99C297.65,255.52 296.17,264.97 296.18,274.51C299.91,274.34 303.63,273.9 307.33,273.38C307.58,266.45 307.72,259.51 308.49,252.62C312.45,252.23 316.38,251.66 320.34,251.2C320.58,247.32 320.82,243.43 321.23,239.56C317.25,240.03 313.29,240.61 309.29,240.9C309.36,237.55 309.49,234.19 309.65,230.84C313.95,230.34 318.24,229.64 322.57,229.44C322.68,225.69 322.9,221.94 323.42,218.22C319.68,217.2 315.83,218.27 312.08,218.73M273.46,222.56C270.92,233.69 267.85,244.7 265.97,255.97C265.28,251.32 264.72,246.64 264.44,241.94C263.83,235.96 262.63,230.04 262.43,224.01C257.71,223.99 253.05,224.76 248.4,225.44C245.97,243.55 244.39,261.79 241.48,279.83C245.17,279.85 248.85,279.55 252.52,279.22C254.31,267.18 254.54,254.99 255.92,242.91C257.13,254.76 258.41,266.63 260.62,278.35C263.45,278 266.28,277.67 269.11,277.3C271.6,265.15 275.34,253.26 277.17,240.98C277.7,252.83 276.15,264.65 276.67,276.51C280.53,276.26 284.51,276.4 288.23,275.22C287.5,257.33 287.69,239.4 287.23,221.49C282.62,221.61 278.05,222.17 273.46,222.56M222.17,281.93C225.93,281.88 229.67,281.56 233.41,281.17C234.84,263.16 235.51,245.11 235.9,227.06C232.4,227.26 228.91,227.46 225.41,227.62C223.74,245.68 223.8,263.86 222.17,281.93M181.78,244.86C178.59,254.6 177.39,265.44 180.81,275.29C182.23,279.79 185.65,283.68 190.1,285.36C196.01,286.91 202.81,285.59 207.12,281.06C214.28,273.77 216.05,262.94 215.85,253.11C209.93,252.92 204.03,253.55 198.2,254.58C197.8,258.23 197.61,261.9 197.52,265.57C199.71,265.39 201.9,265.21 204.09,265.07C203.94,269.45 200.87,274.81 195.86,274.22C192.49,272.97 191.28,269.23 190.69,266.01C190.01,259.14 190.34,251.84 193.66,245.63C195.11,243.01 198.08,240.8 201.21,241.57C203.48,242.63 204.49,244.99 205.52,247.1C209.18,245.93 212.36,243.68 215.47,241.49C215.77,237.91 212.97,234.75 210.65,232.27C206.95,228.24 200.99,228.99 196.11,229.66C189.11,231.81 184.15,238.15 181.78,244.86Z" style="fill:rgb(66,121,171);fill-rule:nonzero;"/>
    </g>
    <g id="_-fdfefeff" serif:id="#fdfefeff">
        <path d="M312.08,218.73C315.83,218.27 319.68,217.2 323.42,218.22C322.9,221.94 322.68,225.69 322.57,229.44C318.24,229.64 313.95,230.34 309.65,230.84C309.49,234.19 309.36,237.55 309.29,240.9C313.29,240.61 317.25,240.03 321.23,239.56C320.82,243.43 320.58,247.32 320.34,251.2C316.38,251.66 312.45,252.23 308.49,252.62C307.72,259.51 307.58,266.45 307.33,273.38C303.63,273.9 299.91,274.34 296.18,274.51C296.17,264.97 297.65,255.52 297.67,245.99C297.98,237.44 298.66,228.91 298.8,220.35C303.17,219.38 307.69,219.64 312.08,218.73Z" style="fill:white;fill-rule:nonzero;"/>
        <path d="M273.46,222.56C278.05,222.17 282.62,221.61 287.23,221.49C287.69,239.4 287.5,257.33 288.23,275.22C284.51,276.4 280.53,276.26 276.67,276.51C276.15,264.65 277.7,252.83 277.17,240.98C275.34,253.26 271.6,265.15 269.11,277.3C266.28,277.67 263.45,278 260.62,278.35C258.41,266.63 257.13,254.76 255.92,242.91C254.54,254.99 254.31,267.18 252.52,279.22C248.85,279.55 245.17,279.85 241.48,279.83C244.39,261.79 245.97,243.55 248.4,225.44C253.05,224.76 257.71,223.99 262.43,224.01C262.63,230.04 263.83,235.96 264.44,241.94C264.72,246.64 265.28,251.32 265.97,255.97C267.85,244.7 270.92,233.69 273.46,222.56Z" style="fill:white;fill-rule:nonzero;"/>
        <path d="M222.17,281.93C223.8,263.86 223.74,245.68 225.41,227.62C228.91,227.46 232.4,227.26 235.9,227.06C235.51,245.11 234.84,263.16 233.41,281.17C229.67,281.56 225.93,281.88 222.17,281.93Z" style="fill:white;fill-rule:nonzero;"/>
        <path d="M181.78,244.86C184.15,238.15 189.11,231.81 196.11,229.66C200.99,228.99 206.95,228.24 210.65,232.27C212.97,234.75 215.77,237.91 215.47,241.49C212.36,243.68 209.18,245.93 205.52,247.1C204.49,244.99 203.48,242.63 201.21,241.57C198.08,240.8 195.11,243.01 193.66,245.63C190.34,251.84 190.01,259.14 190.69,266.01C191.28,269.23 192.49,272.97 195.86,274.22C200.87,274.81 203.94,269.45 204.09,265.07C201.9,265.21 199.71,265.39 197.52,265.57C197.61,261.9 197.8,258.23 198.2,254.58C204.03,253.55 209.93,252.92 215.85,253.11C216.05,262.94 214.28,273.77 207.12,281.06C202.81,285.59 196.01,286.91 190.1,285.36C185.65,283.68 182.23,279.79 180.81,275.29C177.39,265.44 178.59,254.6 181.78,244.86Z" style="fill:white;fill-rule:nonzero;"/>
    </g>
</svg>
