<?xml version="1.0" encoding="UTF-8" standalone="no"?>
<!DOCTYPE svg PUBLIC "-//W3C//DTD SVG 1.1//EN" "http://www.w3.org/Graphics/SVG/1.1/DTD/svg11.dtd">
<svg width="100%" height="100%" viewBox="0 0 1024 1024" version="1.1" xmlns="http://www.w3.org/2000/svg" xmlns:xlink="http://www.w3.org/1999/xlink" xml:space="preserve" xmlns:serif="http://www.serif.com/" style="fill-rule:evenodd;clip-rule:evenodd;stroke-linejoin:round;stroke-miterlimit:2;">
    <g transform="matrix(1.79457,0,0,1.79457,-383.564,-379.499)">
        <g id="_-384f5bff" serif:id="#384f5bff">
            <path d="M352.5,217.17C484.7,217.18 616.91,217.16 749.1,217.13C711.81,254.86 674.12,292.2 636.67,329.77C558.74,329.94 480.81,329.86 402.88,329.81C386.15,346.05 369.79,362.68 353.11,378.98C353.17,456.99 353.12,535.02 353.18,613.04C352.91,614.93 354.54,616.13 355.66,617.38C370.46,631.91 385.02,646.69 399.79,661.25C401.3,662.51 402.7,664.51 404.93,664.31C487.02,664.33 569.1,664.28 651.19,664.34C651.12,623.26 651.26,582.18 651.11,541.09C679.2,569.6 707.37,598.02 735.61,626.37C745.76,636.41 755.46,646.93 765.88,656.68C765.77,696.6 765.85,736.51 765.84,776.42C628.73,776.28 491.62,776.45 354.51,776.32C313.94,735.26 272.97,694.58 232.22,653.69C232.24,548.25 232.26,442.81 232.2,337.36C272.48,297.49 312.44,257.27 352.5,217.17Z" style="fill:rgb(37,99,235);fill-rule:nonzero;"/>
        </g>
        <g id="_-12abc7ff" serif:id="#12abc7ff">
            <path d="M471.32,464.95C479.33,454.31 491.56,446.49 504.97,445.24C511.31,445.14 517.79,444.63 524.01,446.25C530.11,447.68 535.91,450.4 540.99,454.06C544,456.18 546.49,458.95 549.44,461.15C563.25,462.01 577.12,461.24 590.95,461.5C649.15,461.48 707.34,461.54 765.53,461.5C765.29,513.99 765.5,566.49 765.39,618.99C765.59,631.13 764.82,643.3 765.8,655.42L765.88,656.68C755.46,646.93 745.76,636.41 735.61,626.37C707.37,598.02 679.2,569.6 651.11,541.09C646.96,536.72 642.89,532.27 638.7,527.95L638.27,527.59C616.21,527.1 594.12,527.5 572.05,527.39C564.27,527.54 556.47,527.08 548.72,527.8C541.12,535.96 531.24,542.47 519.98,543.96C507.45,546.11 494.2,543.37 483.63,536.29C473.82,529.64 466.02,519.58 463.19,507.96C459.19,493.39 462.3,477.07 471.32,464.95M507.37,477.45C499.51,479.15 493.27,486.94 493.82,495.05C494.08,503.54 501.32,511.63 510.01,511.83C518.87,512.68 527.74,505.95 528.94,497.05C531.33,485.24 518.8,474.22 507.37,477.45Z" style="fill:rgb(22,163,74);fill-rule:nonzero;"/>
        </g>
    </g>
</svg>
